<?xml version="1.0" encoding="utf-8"?>
<!-- Generator: Adobe Illustrator 18.1.0, SVG Export Plug-In . SVG Version: 6.00 Build 0)  -->
<!DOCTYPE svg PUBLIC "-//W3C//DTD SVG 1.1//EN" "http://www.w3.org/Graphics/SVG/1.1/DTD/svg11.dtd">
<svg version="1.1" id="Layer_1" xmlns="http://www.w3.org/2000/svg" xmlns:xlink="http://www.w3.org/1999/xlink" x="0px" y="0px"
	 viewBox="0 0 50 49.77" enable-background="new 0 0 50 49.77" xml:space="preserve">
<g>
	<g>
		<ellipse fill="#FFFFFF" stroke="#D5D5D5" stroke-miterlimit="10" cx="25" cy="24.88" rx="24.5" ry="24.38"/>
	</g>
	<g>
		<path fill="#FF4E00" d="M25.96,27.97c-0.84,0.32-1.55,0.64-1.82,1.06c-0.35,0.55-0.24,3.19-0.24,3.19H13.01
			c0,0-0.11-2.89,0.27-3.49c0.44-0.67,1.88-1.09,3.3-1.69c1.43-0.59,1.77-0.8,1.77-0.8l0.01-1.37c0,0-0.54-0.42-0.7-1.7
			c-0.34,0.1-0.69-0.5-0.71-0.82c-0.02-0.31,0.05-1.14,0.45-1.05c-0.09-0.64-0.15-1.21-0.11-1.5c0.1-1.1,1.19-2.26,2.85-2.26
			c1.68,0,2.75,1.16,2.86,2.26c0.02,0.29-0.04,0.87-0.11,1.5c0.4-0.09,0.46,0.75,0.45,1.05c-0.02,0.32-0.37,0.92-0.71,0.82
			c-0.16,1.28-0.7,1.7-0.7,1.7l0.01,1.37c0,0,0.34,0.21,1.76,0.8C24.53,27.38,25.33,27.66,25.96,27.97z"/>
		<path fill="#FF4E00" d="M36.76,29.32c-0.36-0.56-1.56-0.91-2.75-1.4c-1.19-0.5-1.47-0.67-1.47-0.67l-0.01-1.14
			c0,0,0.45-0.34,0.58-1.42c0.28,0.08,0.57-0.42,0.59-0.68c0.01-0.25-0.04-0.95-0.38-0.88c0.07-0.53,0.12-1,0.1-1.25
			c-0.09-0.92-0.99-1.89-2.38-1.89c-1.39,0-2.29,0.97-2.38,1.89c-0.02,0.25,0.03,0.72,0.1,1.25c-0.34-0.07-0.39,0.63-0.38,0.88
			c0.02,0.26,0.31,0.76,0.59,0.68c0.14,1.08,0.58,1.42,0.58,1.42l-0.01,1.14c0,0-0.28,0.17-1.47,0.67c-1.19,0.5-2.39,0.84-2.75,1.4
			c-0.32,0.5-0.22,2.9-0.22,2.9h11.91C36.99,32.22,37.08,29.82,36.76,29.32z"/>
	</g>
</g>
</svg>
