<?xml version="1.0" encoding="utf-8"?>
<!-- Generator: Adobe Illustrator 18.1.0, SVG Export Plug-In . SVG Version: 6.00 Build 0)  -->
<!DOCTYPE svg PUBLIC "-//W3C//DTD SVG 1.1//EN" "http://www.w3.org/Graphics/SVG/1.1/DTD/svg11.dtd">
<svg version="1.1" id="Layer_1" xmlns="http://www.w3.org/2000/svg" xmlns:xlink="http://www.w3.org/1999/xlink" x="0px" y="0px"
	 viewBox="0 0 50 49.77" enable-background="new 0 0 50 49.77" xml:space="preserve">
<g>
	<g>
		<ellipse fill="#FFFFFF" stroke="#D5D5D5" stroke-miterlimit="10" cx="25" cy="24.88" rx="24.5" ry="24.38"/>
	</g>
	<g>
		<path fill="#FF4E00" d="M33.4,20.08h-4.8c-0.82,0-1.2-0.36-1.2-1.16v-4.84c0-0.66-0.54-1.2-1.2-1.2h-9.6c-0.66,0-1.2,0.54-1.2,1.2
			v21.6c0,0.66,0.54,1.2,1.2,1.2h16.8c0.66,0,1.2-0.54,1.2-1.2v-14.4C34.6,20.62,34.06,20.08,33.4,20.08z M17.8,15.28H25v1.2h-7.2
			V15.28z M17.8,18.88H25v1.2h-7.2V18.88z M32.2,34.48H17.8v-1.2h14.4V34.48z M32.2,30.88H17.8v-1.2h14.4V30.88z M32.2,27.28H17.8
			v-1.2h14.4V27.28z M32.2,23.68H17.8v-1.2h14.4V23.68z"/>
		<path fill="#FF4E00" d="M34.6,18.88h-4.8c-0.66,0-1.2-0.54-1.2-1.2v-4.8l3,3L34.6,18.88z"/>
	</g>
</g>
</svg>
