<?xml version="1.0" encoding="utf-8"?>
<!-- Generator: Adobe Illustrator 18.1.0, SVG Export Plug-In . SVG Version: 6.00 Build 0)  -->
<!DOCTYPE svg PUBLIC "-//W3C//DTD SVG 1.1//EN" "http://www.w3.org/Graphics/SVG/1.1/DTD/svg11.dtd">
<svg version="1.1" id="Layer_1" xmlns="http://www.w3.org/2000/svg" xmlns:xlink="http://www.w3.org/1999/xlink" x="0px" y="0px"
	 viewBox="0 0 50 49.77" enable-background="new 0 0 50 49.77" xml:space="preserve">
<g>
	<g>
		<ellipse fill="#FFFFFF" stroke="#D5D5D5" stroke-miterlimit="10" cx="25" cy="24.88" rx="24.5" ry="24.38"/>
	</g>
	<g>
		<g>
			<path fill="#FF4E00" d="M30.83,20.01c0,0.09,0,0.17-0.01,0.26c-5.34-1.75-12.28,1.1-13.17,7.08l-3.33,1.04l1.64-4.09
				c-1.73-2-2.15-4.84-0.93-7.21c1.08-2.09,3.19-3.49,5.45-4C25.03,12.07,30.83,14.83,30.83,20.01z"/>
		</g>
		<g>
			<path fill="#FF4E00" d="M34.04,32.79l1.64,4.09l-5.38-1.68c-4.94,1.6-11.8-1.58-11.08-7.5c0.02-0.15,0.05-0.3,0.08-0.44
				c0.78-4.94,7.07-6.89,11.24-5.38C35.16,23.33,37.33,28.98,34.04,32.79z"/>
		</g>
	</g>
</g>
</svg>
