<?xml version="1.0" encoding="utf-8"?>
<!-- Generator: Adobe Illustrator 18.1.0, SVG Export Plug-In . SVG Version: 6.00 Build 0)  -->
<!DOCTYPE svg PUBLIC "-//W3C//DTD SVG 1.1//EN" "http://www.w3.org/Graphics/SVG/1.1/DTD/svg11.dtd">
<svg version="1.1" id="Layer_1" xmlns="http://www.w3.org/2000/svg" xmlns:xlink="http://www.w3.org/1999/xlink" x="0px" y="0px"
	 viewBox="0 0 16 16" enable-background="new 0 0 16 16" xml:space="preserve">
<path fill="#FFFFFF" d="M16,8.27V7.73C16,7,15.4,6.4,14.67,6.4h-1.41c-0.13-0.37-0.3-0.72-0.5-1.04l1.09-1.09
	c0.52-0.52,0.52-1.36,0-1.89L13.46,2c-0.52-0.52-1.36-0.52-1.89,0l-1.24,1.24C9.98,3.09,9.96,3.08,9.6,2.93v-1.6C9.6,0.6,9,0,8.27,0
	H7.73C7,0,6.4,0.6,6.4,1.33v1.6C6.05,3.04,5.71,3.18,5.39,3.35L4.23,2.19c-0.52-0.52-1.36-0.52-1.89,0L1.97,2.57
	c-0.52,0.52-0.52,1.36,0,1.89L3.11,5.6C2.97,5.85,2.85,6.12,2.75,6.4H1.33C0.6,6.4,0,7,0,7.73v0.53C0,9,0.6,9.6,1.33,9.6h1.25
	c0.11,0.45,0.29,0.87,0.5,1.27l-0.86,0.86c-0.52,0.52-0.52,1.36,0,1.89L2.61,14c0.52,0.52,1.36,0.52,1.89,0l0.84-0.84
	c0.34,0.19,0.69,0.34,1.07,0.45v1.06C6.4,15.4,7,16,7.73,16h0.53C9,16,9.6,15.4,9.6,14.67V13.6c0.46-0.14,0.9-0.33,1.31-0.58
	l0.79,0.79c0.52,0.52,1.36,0.52,1.89,0l0.38-0.38c0.52-0.52,0.52-1.36,0-1.89l-0.91-0.91c0.16-0.33,0.28-0.67,0.37-1.04h1.24
	C15.4,9.6,16,9,16,8.27z M5.33,8.27C5.33,6.67,6.67,5.6,8,5.6c1.6,0,2.67,1.33,2.67,2.67S9.6,10.93,8,10.93S5.33,9.6,5.33,8.27z"/>
</svg>
