<?xml version="1.0" encoding="utf-8"?>
<!-- Generator: Adobe Illustrator 18.1.0, SVG Export Plug-In . SVG Version: 6.00 Build 0)  -->
<!DOCTYPE svg PUBLIC "-//W3C//DTD SVG 1.1//EN" "http://www.w3.org/Graphics/SVG/1.1/DTD/svg11.dtd">
<svg version="1.1" id="Layer_1" xmlns="http://www.w3.org/2000/svg" xmlns:xlink="http://www.w3.org/1999/xlink" x="0px" y="0px"
	 viewBox="128.11 -0.05 767.79 768.03" enable-background="new 128.11 -0.05 767.79 768.03" xml:space="preserve">
<symbol  id="New_Symbol" viewBox="-16 -16 32 32.01">
	<g>
		<path fill="#FFFFFF" d="M12.33,16.01h-26.66c-0.92,0-1.67-0.75-1.67-1.67v-5c0-0.93,0.75-1.67,1.67-1.67h26.66
			c0.93,0,1.67,0.74,1.67,1.67v5C14,15.26,13.26,16.01,12.33,16.01z M-13.12,10.97c-0.49,0-0.88,0.39-0.88,0.87s0.39,0.88,0.88,0.88
			c0.48,0,0.87-0.4,0.87-0.88S-12.64,10.97-13.12,10.97z M-9.62,10.97c-0.49,0-0.88,0.39-0.88,0.87s0.39,0.88,0.88,0.88
			c0.48,0,0.87-0.4,0.87-0.88S-9.14,10.97-9.62,10.97z M-6.12,10.97c-0.49,0-0.88,0.39-0.88,0.87s0.39,0.88,0.88,0.88
			c0.48,0,0.87-0.4,0.87-0.88S-5.64,10.97-6.12,10.97z M-2.62,10.97c-0.49,0-0.88,0.39-0.88,0.87s0.39,0.88,0.88,0.88
			c0.48,0,0.87-0.4,0.87-0.88S-2.14,10.97-2.62,10.97z M0.88,10.97C0.39,10.97,0,11.36,0,11.84s0.39,0.88,0.88,0.88
			c0.48,0,0.87-0.4,0.87-0.88S1.36,10.97,0.88,10.97z M10.72,10.17c-0.92,0-1.67,0.74-1.67,1.67c0,0.92,0.75,1.67,1.67,1.67
			s1.66-0.75,1.66-1.67C12.38,10.91,11.64,10.17,10.72,10.17z"/>
		<path fill="#FFFFFF" d="M12.33,5.17h-26.66C-15.25,5.17-16,4.42-16,3.5v-5c0-0.92,0.75-1.66,1.67-1.66h20.9
			C7.88-2.41,9.39-1.99,11-1.99c0.95,0,1.87-0.15,2.73-0.43C13.9-2.16,14-1.84,14-1.5v5C14,4.42,13.26,5.17,12.33,5.17z
			 M-13.12,0.13C-13.61,0.13-14,0.52-14,1c0,0.49,0.39,0.88,0.88,0.88c0.48,0,0.87-0.39,0.87-0.88
			C-12.25,0.52-12.64,0.13-13.12,0.13z M-9.62,0.13c-0.49,0-0.88,0.39-0.88,0.87c0,0.49,0.39,0.88,0.88,0.88
			c0.48,0,0.87-0.39,0.87-0.88C-8.75,0.52-9.14,0.13-9.62,0.13z M-6.12,0.13C-6.61,0.13-7,0.52-7,1c0,0.49,0.39,0.88,0.88,0.88
			c0.48,0,0.87-0.39,0.87-0.88C-5.25,0.52-5.64,0.13-6.12,0.13z M-2.62,0.13C-3.11,0.13-3.5,0.52-3.5,1c0,0.49,0.39,0.88,0.88,0.88
			c0.48,0,0.87-0.39,0.87-0.88C-1.75,0.52-2.14,0.13-2.62,0.13z M0.88,0.13C0.39,0.13,0,0.52,0,1c0,0.49,0.39,0.88,0.88,0.88
			c0.48,0,0.87-0.39,0.87-0.88C1.75,0.52,1.36,0.13,0.88,0.13z M10.72-0.66C9.8-0.66,9.05,0.08,9.05,1s0.75,1.67,1.67,1.67
			S12.38,1.92,12.38,1S11.64-0.66,10.72-0.66z"/>
		<path fill="#FFFFFF" d="M3.75-5.66h-18.08c-0.92,0-1.67-0.75-1.67-1.67v-5c0-0.92,0.75-1.67,1.67-1.67H2.52
			C2.18-13.06,2-12.05,2-10.99C2-8.99,2.65-7.15,3.75-5.66z M-13.12-10.7c-0.49,0-0.88,0.39-0.88,0.87c0,0.48,0.39,0.88,0.88,0.88
			c0.48,0,0.87-0.4,0.87-0.88C-12.25-10.31-12.64-10.7-13.12-10.7z M-9.62-10.7c-0.49,0-0.88,0.39-0.88,0.87s0.39,0.88,0.88,0.88
			c0.48,0,0.87-0.4,0.87-0.88C-8.75-10.31-9.14-10.7-9.62-10.7z M-6.12-10.7C-6.61-10.7-7-10.31-7-9.83c0,0.48,0.39,0.88,0.88,0.88
			c0.48,0,0.87-0.4,0.87-0.88C-5.25-10.31-5.64-10.7-6.12-10.7z M-2.62-10.7c-0.49,0-0.88,0.39-0.88,0.87s0.39,0.88,0.88,0.88
			c0.48,0,0.87-0.4,0.87-0.88C-1.75-10.31-2.14-10.7-2.62-10.7z M0.88-10.7C0.39-10.7,0-10.31,0-9.83c0,0.48,0.39,0.88,0.88,0.88
			c0.48,0,0.87-0.4,0.87-0.88C1.75-10.31,1.36-10.7,0.88-10.7z"/>
	</g>
	<path fill="#FFFFFF" d="M16-10.2v0.4c0,0.55-0.45,1-1,1h-1.06c-0.1,0.28-0.22,0.54-0.38,0.78l0.82,0.82c0.39,0.39,0.39,1.02,0,1.41
		L14.1-5.5c-0.39,0.39-1.02,0.39-1.41,0l-0.93-0.93c-0.27,0.11-0.29,0.12-0.56,0.23V-5c0,0.55-0.45,1-1,1H9.8c-0.55,0-1-0.45-1-1
		v-1.2C8.54-6.28,8.29-6.38,8.05-6.51L7.18-5.64c-0.39,0.39-1.02,0.39-1.41,0L5.48-5.93c-0.39-0.39-0.39-1.02,0-1.41L6.33-8.2
		c-0.11-0.19-0.2-0.39-0.27-0.6H5c-0.55,0-1-0.45-1-1v-0.4c0-0.55,0.45-1,1-1h0.94c0.08-0.33,0.21-0.65,0.38-0.96L5.67-12.8
		c-0.39-0.39-0.39-1.02,0-1.41l0.28-0.28c0.39-0.39,1.02-0.39,1.41,0L8-13.87C8.25-14,8.52-14.12,8.8-14.2V-15c0-0.55,0.45-1,1-1
		h0.4c0.55,0,1,0.45,1,1v0.8c0.35,0.11,0.68,0.25,0.98,0.44l0.59-0.59c0.39-0.39,1.02-0.39,1.41,0l0.28,0.28
		c0.39,0.39,0.39,1.02,0,1.41l-0.68,0.68c0.13,0.25,0.22,0.51,0.29,0.78H15C15.55-11.2,16-10.75,16-10.2z M8-10.2c0,1.2,1,2,2,2
		c1.2,0,2-1,2-2s-0.8-2-2-2S8-11.2,8-10.2z"/>
</symbol>
<use xlink:href="#New_Symbol"  width="32" height="32.01" id="XMLID_1_" x="-16" y="-16" transform="matrix(23.9933 0 0 -23.9933 512 383.9668)" overflow="visible"/>
</svg>
