<?xml version="1.0" encoding="utf-8"?>
<!-- Generator: Adobe Illustrator 18.0.0, SVG Export Plug-In . SVG Version: 6.00 Build 0)  -->
<!DOCTYPE svg PUBLIC "-//W3C//DTD SVG 1.1//EN" "http://www.w3.org/Graphics/SVG/1.1/DTD/svg11.dtd">
<svg version="1.1" id="Layer_1" xmlns="http://www.w3.org/2000/svg" xmlns:xlink="http://www.w3.org/1999/xlink" x="0px" y="0px"
	 viewBox="0 0 70 70" enable-background="new 0 0 70 70" xml:space="preserve">
<symbol  id="New_Symbol" viewBox="-16 -16 32 32">
	<g>
		<path fill="#F05123" d="M12.3,16h-26.7c-0.9,0-1.7-0.8-1.7-1.7v-5c0-0.9,0.8-1.7,1.7-1.7h26.7c0.9,0,1.7,0.7,1.7,1.7v5
			C14,15.3,13.3,16,12.3,16z M-13.1,11c-0.5,0-0.9,0.4-0.9,0.9s0.4,0.9,0.9,0.9c0.5,0,0.9-0.4,0.9-0.9S-12.6,11-13.1,11z M-9.6,11
			c-0.5,0-0.9,0.4-0.9,0.9s0.4,0.9,0.9,0.9c0.5,0,0.9-0.4,0.9-0.9S-9.1,11-9.6,11z M-6.1,11C-6.6,11-7,11.4-7,11.8s0.4,0.9,0.9,0.9
			c0.5,0,0.9-0.4,0.9-0.9S-5.6,11-6.1,11z M-2.6,11c-0.5,0-0.9,0.4-0.9,0.9s0.4,0.9,0.9,0.9c0.5,0,0.9-0.4,0.9-0.9S-2.1,11-2.6,11z
			 M0.9,11C0.4,11,0,11.4,0,11.8s0.4,0.9,0.9,0.9c0.5,0,0.9-0.4,0.9-0.9S1.4,11,0.9,11z M10.7,10.2c-0.9,0-1.7,0.7-1.7,1.7
			c0,0.9,0.8,1.7,1.7,1.7s1.7-0.8,1.7-1.7C12.4,10.9,11.6,10.2,10.7,10.2z"/>
		<path fill="#F05123" d="M12.3,5.2h-26.7c-0.9,0-1.7-0.8-1.7-1.7v-5c0-0.9,0.8-1.7,1.7-1.7H6.6C7.9-2.4,9.4-2,11-2
			c0.9,0,1.9-0.1,2.7-0.4C13.9-2.2,14-1.8,14-1.5v5C14,4.4,13.3,5.2,12.3,5.2z M-13.1,0.1C-13.6,0.1-14,0.5-14,1
			c0,0.5,0.4,0.9,0.9,0.9c0.5,0,0.9-0.4,0.9-0.9C-12.2,0.5-12.6,0.1-13.1,0.1z M-9.6,0.1c-0.5,0-0.9,0.4-0.9,0.9
			c0,0.5,0.4,0.9,0.9,0.9c0.5,0,0.9-0.4,0.9-0.9C-8.7,0.5-9.1,0.1-9.6,0.1z M-6.1,0.1C-6.6,0.1-7,0.5-7,1c0,0.5,0.4,0.9,0.9,0.9
			c0.5,0,0.9-0.4,0.9-0.9C-5.2,0.5-5.6,0.1-6.1,0.1z M-2.6,0.1c-0.5,0-0.9,0.4-0.9,0.9c0,0.5,0.4,0.9,0.9,0.9c0.5,0,0.9-0.4,0.9-0.9
			C-1.7,0.5-2.1,0.1-2.6,0.1z M0.9,0.1C0.4,0.1,0,0.5,0,1c0,0.5,0.4,0.9,0.9,0.9c0.5,0,0.9-0.4,0.9-0.9C1.8,0.5,1.4,0.1,0.9,0.1z
			 M10.7-0.7C9.8-0.7,9.1,0.1,9.1,1s0.8,1.7,1.7,1.7s1.7-0.8,1.7-1.7S11.6-0.7,10.7-0.7z"/>
		<path fill="#F05123" d="M3.8-5.7h-18.1c-0.9,0-1.7-0.8-1.7-1.7v-5c0-0.9,0.8-1.7,1.7-1.7H2.5C2.2-13.1,2-12.1,2-11
			C2-9,2.7-7.2,3.8-5.7z M-13.1-10.7c-0.5,0-0.9,0.4-0.9,0.9S-13.6-9-13.1-9c0.5,0,0.9-0.4,0.9-0.9S-12.6-10.7-13.1-10.7z
			 M-9.6-10.7c-0.5,0-0.9,0.4-0.9,0.9S-10.1-9-9.6-9c0.5,0,0.9-0.4,0.9-0.9S-9.1-10.7-9.6-10.7z M-6.1-10.7c-0.5,0-0.9,0.4-0.9,0.9
			C-7-9.4-6.6-9-6.1-9c0.5,0,0.9-0.4,0.9-0.9S-5.6-10.7-6.1-10.7z M-2.6-10.7c-0.5,0-0.9,0.4-0.9,0.9S-3.1-9-2.6-9
			c0.5,0,0.9-0.4,0.9-0.9C-1.7-10.3-2.1-10.7-2.6-10.7z M0.9-10.7C0.4-10.7,0-10.3,0-9.8C0-9.4,0.4-9,0.9-9c0.5,0,0.9-0.4,0.9-0.9
			S1.4-10.7,0.9-10.7z"/>
	</g>
	<path fill="#EB4939" d="M16-10.2v0.4c0,0.6-0.4,1-1,1h-1.1c-0.1,0.3-0.2,0.5-0.4,0.8l0.8,0.8c0.4,0.4,0.4,1,0,1.4l-0.3,0.3
		c-0.4,0.4-1,0.4-1.4,0l-0.9-0.9c-0.3,0.1-0.3,0.1-0.6,0.2V-5c0,0.6-0.4,1-1,1H9.8c-0.6,0-1-0.4-1-1v-1.2C8.5-6.3,8.3-6.4,8.1-6.5
		L7.2-5.6c-0.4,0.4-1,0.4-1.4,0L5.5-5.9c-0.4-0.4-0.4-1,0-1.4l0.8-0.9C6.2-8.4,6.1-8.6,6.1-8.8H5c-0.6,0-1-0.4-1-1v-0.4
		c0-0.6,0.4-1,1-1h0.9c0.1-0.3,0.2-0.6,0.4-1l-0.7-0.6c-0.4-0.4-0.4-1,0-1.4L6-14.5c0.4-0.4,1-0.4,1.4,0L8-13.9
		c0.2-0.1,0.5-0.2,0.8-0.3V-15c0-0.6,0.4-1,1-1h0.4c0.6,0,1,0.4,1,1v0.8c0.4,0.1,0.7,0.2,1,0.4l0.6-0.6c0.4-0.4,1-0.4,1.4,0l0.3,0.3
		c0.4,0.4,0.4,1,0,1.4L13.8-12c0.1,0.2,0.2,0.5,0.3,0.8H15C15.6-11.2,16-10.8,16-10.2z M8-10.2c0,1.2,1,2,2,2c1.2,0,2-1,2-2
		s-0.8-2-2-2S8-11.2,8-10.2z"/>
</symbol>
<g>
	<g>
		<ellipse fill="none" stroke="#D6D5D5" stroke-miterlimit="10" cx="35" cy="35.2" rx="32" ry="31.8"/>
	</g>
	
		<use xlink:href="#New_Symbol"  width="32" height="32" id="XMLID_1_" x="-16" y="-16" transform="matrix(1.1058 0 0 -1.1058 35.7084 36.1936)" overflow="visible"/>
</g>
</svg>
